<svg
  width="26"
  height="26"
  viewBox="0 0 26 26"
  fill="none"
  xmlns="http://www.w3.org/2000/svg"
>
  <g clipPath="url(#clip0_111_1389)">
    <path
      d="M13 8.66669C12.1429 8.66669 11.3051 8.92083 10.5925 9.39699C9.87992 9.87314 9.3245 10.5499 8.99652 11.3417C8.66854 12.1335 8.58273 13.0048 8.74993 13.8454C8.91713 14.686 9.32984 15.4581 9.93587 16.0642C10.5419 16.6702 11.314 17.0829 12.1546 17.2501C12.9952 17.4173 13.8665 17.3315 14.6583 17.0035C15.4501 16.6755 16.1269 16.1201 16.603 15.4075C17.0792 14.6949 17.3333 13.8571 17.3333 13C17.3333 11.8507 16.8768 10.7485 16.0641 9.93589C15.2515 9.12323 14.1493 8.66669 13 8.66669ZM13 15.1667C12.5715 15.1667 12.1526 15.0396 11.7963 14.8015C11.44 14.5635 11.1623 14.2251 10.9983 13.8292C10.8343 13.4333 10.7914 12.9976 10.875 12.5773C10.9586 12.157 11.1649 11.771 11.4679 11.468C11.7709 11.1649 12.157 10.9586 12.5773 10.875C12.9976 10.7914 13.4332 10.8343 13.8291 10.9983C14.2251 11.1623 14.5634 11.44 14.8015 11.7963C15.0396 12.1526 15.1667 12.5715 15.1667 13C15.1667 13.5747 14.9384 14.1258 14.5321 14.5321C14.1257 14.9384 13.5746 15.1667 13 15.1667Z"
      fill="#667ACD"
    />
    <path
      d="M23.0685 15.0583L22.5875 14.781C22.8041 13.6028 22.8041 12.395 22.5875 11.2168L23.0685 10.9395C23.4384 10.7261 23.7626 10.4419 24.0227 10.1032C24.2828 9.76453 24.4736 9.37792 24.5842 8.96547C24.6949 8.55302 24.7232 8.12282 24.6676 7.69942C24.612 7.27602 24.4736 6.86772 24.2602 6.49783C24.0468 6.12794 23.7626 5.80371 23.4239 5.54364C23.0852 5.28357 22.6986 5.09276 22.2861 4.9821C21.8737 4.87144 21.4435 4.84311 21.0201 4.89871C20.5967 4.95432 20.1884 5.09277 19.8185 5.30617L19.3364 5.58458C18.4259 4.80666 17.3796 4.2036 16.25 3.80575V3.25C16.25 2.38805 15.9076 1.5614 15.2981 0.951903C14.6886 0.34241 13.862 0 13 0C12.138 0 11.3114 0.34241 10.7019 0.951903C10.0924 1.5614 9.75 2.38805 9.75 3.25V3.80575C8.6205 4.20503 7.5745 4.80957 6.66467 5.58892L6.18042 5.30833C5.43339 4.87736 4.54576 4.76079 3.71278 4.98427C2.87981 5.20775 2.16973 5.75297 1.73875 6.5C1.30777 7.24703 1.1912 8.13466 1.41468 8.96764C1.63817 9.80061 2.18339 10.5107 2.93042 10.9417L3.41142 11.219C3.19487 12.3972 3.19487 13.605 3.41142 14.7832L2.93042 15.0605C2.18339 15.4915 1.63817 16.2016 1.41468 17.0345C1.1912 17.8675 1.30777 18.7551 1.73875 19.5022C2.16973 20.2492 2.87981 20.7944 3.71278 21.0179C4.54576 21.2414 5.43339 21.1248 6.18042 20.6938L6.6625 20.4154C7.57333 21.1935 8.62006 21.7965 9.75 22.1943V22.75C9.75 23.612 10.0924 24.4386 10.7019 25.0481C11.3114 25.6576 12.138 26 13 26C13.862 26 14.6886 25.6576 15.2981 25.0481C15.9076 24.4386 16.25 23.612 16.25 22.75V22.1943C17.3795 21.795 18.4255 21.1904 19.3353 20.4111L19.8196 20.6906C20.5666 21.1216 21.4542 21.2381 22.2872 21.0147C23.1202 20.7912 23.8303 20.2459 24.2613 19.4989C24.6922 18.7519 24.8088 17.8643 24.5853 17.0313C24.3618 16.1983 23.8166 15.4882 23.0696 15.0573L23.0685 15.0583ZM20.3082 10.9677C20.675 12.297 20.675 13.7008 20.3082 15.0302C20.2441 15.2615 20.2587 15.5076 20.3497 15.7298C20.4407 15.952 20.6029 16.1376 20.8108 16.2576L21.9852 16.9358C22.2341 17.0794 22.4158 17.3161 22.4903 17.5937C22.5647 17.8713 22.5259 18.1672 22.3822 18.4161C22.2386 18.6651 22.0019 18.8468 21.7243 18.9212C21.4466 18.9957 21.1508 18.9568 20.9018 18.8132L19.7253 18.1328C19.5172 18.0123 19.2749 17.9644 19.0366 17.9968C18.7983 18.0292 18.5775 18.1399 18.4091 18.3116C17.4448 19.296 16.23 19.9983 14.8958 20.3428C14.663 20.4027 14.4566 20.5384 14.3093 20.7284C14.162 20.9185 14.0821 21.1521 14.0823 21.3926V22.75C14.0823 23.0373 13.9681 23.3129 13.765 23.516C13.5618 23.7192 13.2862 23.8333 12.9989 23.8333C12.7116 23.8333 12.436 23.7192 12.2329 23.516C12.0297 23.3129 11.9156 23.0373 11.9156 22.75V21.3937C11.9157 21.1532 11.8358 20.9196 11.6885 20.7295C11.5412 20.5394 11.3349 20.4038 11.102 20.3439C9.76771 19.998 8.55327 19.2941 7.58983 18.3083C7.4214 18.1367 7.20063 18.0259 6.96232 17.9936C6.72401 17.9612 6.4817 18.009 6.27358 18.1296L5.09925 18.8088C4.976 18.8811 4.83967 18.9283 4.69812 18.9476C4.55657 18.967 4.41258 18.9581 4.27446 18.9216C4.13633 18.8851 4.0068 18.8216 3.89331 18.7348C3.77981 18.648 3.68461 18.5397 3.61317 18.4159C3.54174 18.2922 3.49548 18.1556 3.47706 18.0139C3.45865 17.8722 3.46844 17.7283 3.50587 17.5904C3.54331 17.4525 3.60764 17.3234 3.69518 17.2105C3.78271 17.0976 3.89172 17.0031 4.01592 16.9325L5.19025 16.2543C5.3982 16.1344 5.5604 15.9487 5.65138 15.7265C5.74237 15.5044 5.75698 15.2583 5.69292 15.0269C5.32605 13.6976 5.32605 12.2937 5.69292 10.9644C5.75582 10.7335 5.74051 10.4883 5.64938 10.2671C5.55825 10.0458 5.39643 9.86094 5.18917 9.74133L4.01483 9.06317C3.76587 8.91951 3.58418 8.68283 3.50972 8.40521C3.43526 8.12759 3.47413 7.83175 3.61779 7.58279C3.76145 7.33383 3.99813 7.15213 4.27575 7.07768C4.55337 7.00322 4.84921 7.04209 5.09817 7.18575L6.27467 7.86608C6.48221 7.98689 6.72401 8.03531 6.96207 8.00374C7.20013 7.97217 7.42095 7.86239 7.58983 7.69167C8.5541 6.70729 9.76888 6.00494 11.1031 5.66042C11.3367 5.60036 11.5436 5.46407 11.6909 5.27313C11.8383 5.08219 11.9178 4.84753 11.9167 4.60633V3.25C11.9167 2.96268 12.0308 2.68713 12.234 2.48397C12.4371 2.2808 12.7127 2.16667 13 2.16667C13.2873 2.16667 13.5629 2.2808 13.766 2.48397C13.9692 2.68713 14.0833 2.96268 14.0833 3.25V4.60633C14.0832 4.84679 14.1631 5.08045 14.3104 5.2705C14.4577 5.46056 14.664 5.59621 14.8969 5.65608C16.2316 6.00183 17.4464 6.70571 18.4102 7.69167C18.5786 7.86334 18.7994 7.97408 19.0377 8.00645C19.276 8.03881 19.5183 7.99095 19.7264 7.87042L20.9008 7.19117C21.024 7.11891 21.1603 7.07175 21.3019 7.05239C21.4434 7.03304 21.5874 7.04188 21.7255 7.07839C21.8637 7.11491 21.9932 7.17839 22.1067 7.26517C22.2202 7.35196 22.3154 7.46033 22.3868 7.58406C22.4583 7.70779 22.5045 7.84443 22.5229 7.9861C22.5414 8.12778 22.5316 8.2717 22.4941 8.40958C22.4567 8.54746 22.3924 8.67657 22.3048 8.78949C22.2173 8.9024 22.1083 8.99689 21.9841 9.0675L20.8098 9.74567C20.6029 9.8656 20.4415 10.0506 20.3508 10.2718C20.2601 10.4931 20.2451 10.7381 20.3082 10.9688V10.9677Z"
      fill="#667ACD"
    />
  </g>
  <defs>
    <clipPath id="clip0_111_1389">
      <rect width="26" height="26" fill="white" />
    </clipPath>
  </defs>
</svg>